<svg width="80" height="20" viewBox="0 0 80 20" fill="none" xmlns="http://www.w3.org/2000/svg">
<path d="M28.2765 0C30.5407 0 31.6979 1.25654 31.6979 3.56019V6.17797C31.6979 6.43975 31.6979 7.46102 31.6979 7.46102L28.4275 6.56168C28.4275 6.56168 28.4275 6.43975 28.4275 6.17797V4.29316C28.4275 3.6649 28.1256 3.29841 27.4715 3.29841H26.3143C25.7105 3.29841 25.3583 3.6649 25.3583 4.29316V7.74864L31.6979 9.52873V10.4987V16.3767C31.6979 18.7327 30.44 19.9475 28.2262 19.9475H25.5596C23.3457 19.9475 22.1382 18.691 22.1382 16.3873V13.7695C22.1382 13.5078 22.1382 12.5654 22.1382 12.5654L25.4086 13.6125V13.7695V15.7067C25.4086 16.3873 25.7608 16.7015 26.3646 16.7015H27.5218C28.1256 16.7015 28.4778 16.3873 28.4778 15.7067L28.4275 12.3559L22.1382 10.4711C22.1382 10.4711 22.1382 9.99993 22.1382 9.52873V3.56019C22.1382 1.20418 23.3457 0 25.5596 0H28.2765Z" fill="#3C3F34"/>
<path d="M40.8554 0H34.717C34.717 0 34.717 0.15748 34.717 0.419948V19.5801C34.717 19.8425 34.7171 20 34.7171 20H37.9875C37.9875 20 37.9875 19.8425 37.9875 19.5801V13.2808H40.8554C43.1195 13.2808 44.2768 12.021 44.2768 9.71129V3.56955C44.2768 1.25984 43.0692 0 40.8554 0ZM41.0063 8.97638C41.0063 9.6063 40.7044 9.97375 40.0504 9.97375H37.9372V3.30709H40.0504C40.7044 3.30709 41.0063 3.67454 41.0063 4.30446V8.97638Z" fill="#3C3F34"/>
<path d="M19.6226 0C19.6226 0 19.6226 0.157067 19.6226 0.418845V19.5287C19.6226 19.7904 19.6226 19.9475 19.6226 19.9475H16.6038C16.6038 19.9475 16.6038 19.7904 16.6038 19.5287V0.418845C16.6038 0.157067 16.6038 0 16.6038 0L19.6226 0Z" fill="#3C3F34"/>
<path d="M57.3581 19.9475L53.3833 0C53.3833 0 53.182 0 52.9808 0H49.66H49.2575L45.2827 19.9475H45.5846H48.1506H48.3016L49.2072 15.958H53.4839L54.138 19.9475C54.138 19.9475 54.289 19.9475 54.5405 19.9475H57.0563C57.3078 19.9475 57.3581 19.9475 57.3581 19.9475ZM49.7607 13.0709L51.2701 4.35696L52.7795 13.0709H49.7607Z" fill="#3C3F34"/>
<path d="M80 3.14961V3.30709H73.4038V8.29396H77.7535C77.9925 8.29396 78.5661 8.29396 78.5661 8.29396V11.6011C78.5661 11.6011 77.9925 11.6011 77.7535 11.6011H73.4038V16.6404H80C80 16.6404 80 16.7454 80 17.0604V19.4226C80 19.685 80 19.9475 80 19.9475H70.4403C70.4403 19.9475 70.4403 19.79 70.4403 19.5276V0.419948L70.4403 0H79.1397C79.4264 0 80 0 80 0V2.88714V3.14961Z" fill="#3C3F34"/>
<path d="M67.9244 0H57.3584C57.3584 0 57.3584 0.251734 57.3584 0.524934V2.88714C57.3584 3.1057 57.3584 3.39188 57.3584 3.39188H60.8804V14.6982C60.8804 14.6982 61.0979 14.6982 61.2473 14.6982H61.9941H62.2431H62.2929H62.3427H63.438H63.7866H64.4024V3.39188L67.9244 3.42012C67.9244 3.42012 67.9244 3.42281 67.9244 3.14961V0.524934V0Z" fill="#3C3F34"/>
<path d="M64.402 16.2729H60.88C60.88 16.2729 60.88 16.3915 60.88 16.4507V19.9475C60.88 19.9475 60.9936 19.9475 61.0504 19.9475H64.402C64.402 19.9475 64.402 19.829 64.402 19.7697V16.4507C64.402 16.3915 64.402 16.2729 64.402 16.2729Z" fill="#3C3F34"/>
<path d="M2.87279 8.39941H0.146074C0.0973826 8.39941 0 8.39941 0 8.39941V11.3966C0 11.4982 0 11.549 0 11.549H2.87279C2.97017 11.549 3.01886 11.549 3.01886 11.549V8.39941C3.01886 8.39941 2.97017 8.39941 2.87279 8.39941Z" fill="#3C3F34"/>
<path d="M10.5662 0H4.52844C4.52844 0 4.52844 0.157067 4.52844 0.418845V8.39895H7.79887V3.35076C7.79887 3.29841 7.79887 3.29841 7.79887 3.29841H9.96239C10.5662 3.29841 10.9184 3.6649 10.9184 4.29316V15.602C10.9184 16.2826 10.5662 16.5967 9.96239 16.5967H7.84919C7.79887 16.5967 7.79887 16.5967 7.79887 16.5967V11.5486H4.52844V19.4763C4.52844 19.7381 4.52844 19.9475 4.52844 19.9475H10.5662C12.5284 19.9475 14.0882 18.3245 14.0882 16.2826V3.6649C14.0882 1.62303 12.4781 0 10.5662 0Z" fill="#3C3F34"/>
</svg>
