<svg width="1871" height="647" viewBox="0 0 1871 647" fill="none" xmlns="http://www.w3.org/2000/svg">
<path fill-rule="evenodd" clip-rule="evenodd" d="M1113.41 446.991C1236.86 455.262 1338.13 555.489 1447.55 613.215C1582.36 684.328 1754.9 638.75 1832.94 511.414C1910.97 384.078 1864.95 223.203 1730.15 152.09C1656.23 113.1 1570.98 109.189 1496.18 134.599C1439.75 153.767 1383.7 178.306 1324.18 181.14L811.866 205.536C662.478 212.65 527.688 85.2129 390.506 25.6425C369.224 16.4011 346.399 9.41597 322.347 5.0958C171.166 -22.0593 28.7741 66.3609 4.30499 202.588C-20.1641 338.815 82.5561 471.262 233.737 498.417C283.331 507.325 331.979 503.796 375.829 490.221C468.573 461.511 560.628 409.954 657.498 416.444L1113.41 446.991Z" fill="#F7F8F3"/>
</svg>
